<?xml version="1.0" standalone="no"?>
<!DOCTYPE svg PUBLIC "-//W3C//DTD SVG 1.1//EN" "http://www.w3.org/Graphics/SVG/1.1/DTD/svg11.dtd" >
<svg xmlns="http://www.w3.org/2000/svg">
<metadata></metadata>
<defs>
<font id="rodondoregular" horiz-adv-x="370" >
<font-face units-per-em="2048" ascent="1638" descent="-410" />
<missing-glyph horiz-adv-x="552" />
<glyph horiz-adv-x="2048" />
<glyph horiz-adv-x="2048" />
<glyph unicode="&#xd;" horiz-adv-x="2048" />
<glyph unicode=" "  horiz-adv-x="552" />
<glyph unicode="&#x09;" horiz-adv-x="552" />
<glyph unicode="&#xa0;" horiz-adv-x="552" />
<glyph unicode="!" horiz-adv-x="372" d="M63 111q0 51 36 86.5t87 35.5t88 -35.5t37 -86.5t-37 -88t-88 -37t-87 37t-36 88zM88 309v600v47q0 94 52.5 170.5t138.5 110.5h4v-928h-195z" />
<glyph unicode="&#x22;" horiz-adv-x="567" d="M61 1024v295h195v-14q0 -94 -52 -170.5t-138 -110.5h-5zM309 1024v295h195v-14q0 -94 -52.5 -170.5t-138.5 -110.5h-4z" />
<glyph unicode="#" horiz-adv-x="1361" d="M61 303v195h226l90 200h-316v195h402l151 334h228l-150 -334h228l149 334h229l-149 -334h151v-195h-239l-88 -200h327v-195h-415l-135 -301h-230l135 301h-227l-135 -301h-230l136 301h-138zM516 498h227l91 200h-230z" />
<glyph unicode="%" horiz-adv-x="1353" d="M63 942q0 118 83 200.5t202 82.5q118 0 200.5 -82.5t82.5 -200.5q0 -119 -82.5 -202t-200.5 -83t-201.5 83.5t-83.5 201.5zM203 0l755 1225h195l-756 -1225h-194zM209 942q0 -57 41 -98t98 -41t97 41t40 98t-40 97t-97 40t-98 -40t-41 -97zM723 285q0 118 83 200t202 82 q118 0 200 -81.5t82 -200.5t-82 -202t-200 -83t-201.5 83t-83.5 202zM868 285q0 -57 41.5 -98.5t98.5 -41.5t97 41.5t40 98.5t-40 97t-97 40t-98.5 -40t-41.5 -97z" />
<glyph unicode="&#x26;" horiz-adv-x="1148" d="M63 406q0 146 113 253q46 40 76 60l-29 37q-61 76 -61 184q0 128 90 215q91 88 217 88q122 0 205 -86t80 -217q-3 -129 -125 -225q-36 -31 -80 -53l213 -263q60 49 142.5 54t154.5 -33l2 -2l-176 -170l202 -248h-251l-91 111l-4 -5q-115 -106 -274 -106q-168 0 -287 119 q-117 117 -117 287zM258 406q0 -86 61.5 -148.5t147.5 -62.5q82 0 143 55l13 12l-248 303q-65 -41 -91 -75t-26 -84zM356 940q0 -34 21 -63l47 -60l18 10l10 5q11 5 27.5 14.5t30.5 21.5q49 38 49 78q0 52 -24 76q-27 27 -66 27q-44 0 -78.5 -33t-34.5 -76z" />
<glyph unicode="'" horiz-adv-x="278" d="M41 999v330h195v-49q0 -94 -52.5 -170.5t-138.5 -110.5h-4z" />
<glyph unicode="(" d="M61 602q0 386 95 737q1 3 2 9.5t2 9.5h205q-109 -360 -109 -756q0 -392 109 -752h-205q-1 3 -2 8.5t-2 8.5q-95 351 -95 735z" />
<glyph unicode=")" d="M61 -150q109 360 109 752q0 396 -109 756h205q1 -3 2 -9.5t2 -9.5q95 -351 95 -737q0 -384 -95 -735q-1 -3 -2 -8.5t-2 -8.5h-205z" />
<glyph unicode="*" horiz-adv-x="731" d="M61 1278l2 4l183 -59q17 65 65.5 115t118.5 75h2v-190q66 3 129.5 -28.5t106.5 -88.5v-4l-179 -58q24 -64 14 -132.5t-52 -129.5l-2 -2l-113 156q-53 -43 -122 -55.5t-140 8.5l-2 2l112 156q-57 37 -89 98t-34 133z" />
<glyph unicode="+" horiz-adv-x="882" d="M61 516v195h283v282h195v-282h280v-195h-280v-283h-195v283h-283z" />
<glyph unicode="," horiz-adv-x="321" d="M63 -152v330h195v-49q0 -94 -52 -170.5t-138 -110.5h-5z" />
<glyph unicode="-" horiz-adv-x="704" d="M61 516v4q34 86 110.5 138.5t170.5 52.5h6v2h295v-4q-34 -86 -110.5 -139.5t-170.5 -53.5q-1 0 -3 1t-3 1v-2h-295z" />
<glyph unicode="." d="M61 113q0 125 125 125q123 0 123 -125q0 -123 -123 -123q-125 0 -125 123z" />
<glyph unicode="/" horiz-adv-x="1105" d="M59 -150l756 1524h229l-755 -1524h-230z" />
<glyph unicode="0" horiz-adv-x="980" d="M61 614q0 242 113 422q56 89 133 142q83 57 182 57q102 0 185 -57q77 -53 133 -142q113 -180 113 -422q0 -241 -113 -421q-56 -89 -133 -142q-83 -57 -185 -57q-99 0 -182 57q-77 53 -133 142q-113 180 -113 421zM256 614q0 -185 82 -317q26 -42 64.5 -75.5t86.5 -33.5 t88.5 34t65.5 75q82 132 82 317q0 186 -82 318q-24 40 -65 73t-89 33t-87 -32.5t-64 -73.5q-82 -132 -82 -318z" />
<glyph unicode="1" horiz-adv-x="319" d="M61 303l2 920h195v-1227h-4q-86 34 -138.5 112t-52.5 175v20h-2z" />
<glyph unicode="2" horiz-adv-x="890" d="M61 -2l500 825l2 4q15 30 15 64q0 58 -42.5 100.5t-101.5 42.5q-72 0 -117 -61l-167 100q45 72 120.5 114t163.5 42q140 0 239 -99.5t99 -238.5q0 -86 -43 -164h2l-328 -534h117h19q97 0 174.5 -52.5t111.5 -138.5l2 -4h-245h-76h-45h-400z" />
<glyph unicode="3" horiz-adv-x="866" d="M61 311l191 56h2v-5q0 -74 51.5 -126t124.5 -52q74 0 126 52t52 126q0 70 -44.5 125.5t-108.5 55.5h-4h-7h-53v194h84q49 0 86 46.5t37 103.5q0 63 -44.5 106t-107.5 43q-41 0 -75.5 -20.5t-55.5 -54.5l-188 55q39 97 125.5 156t193.5 59q143 0 245 -101t102 -243 q0 -151 -109 -252l10 -10q109 -109 109 -263q0 -155 -109 -264q-108 -108 -264 -108q-154 0 -262 108q-92 92 -107 213z" />
<glyph unicode="4" horiz-adv-x="1110" d="M63 217l758 1049v-27v-311v-522q76 -15 137 -65.5t89 -121.5v-2h-226v-217h-194v217h-564zM469 412h158v229z" />
<glyph unicode="5" horiz-adv-x="931" d="M63 387v6h195v-6q0 -83 59 -142t142 -59t141.5 59t58.5 142t-59.5 142t-142.5 59q-46 0 -88 -21t-70 -57h-217q0 2 4 10l233 701h37h168h346v-2q-34 -86 -112.5 -138.5t-175.5 -52.5l-19 -2h-100l-82 -250q37 6 78 6q166 0 280 -114q115 -115 115 -281q0 -163 -115 -278 q-117 -117 -280 -117q-162 0 -279 117t-117 278z" />
<glyph unicode="6" horiz-adv-x="890" d="M63 367q0 127 76 229l189 299l219 350l2 -2q55 -75 58.5 -168.5t-48.5 -177.5l-10 -16l-4 -7l-23 -36l-30 -50l-25 -38q145 -6 250 -111q112 -112 112 -272q0 -159 -112 -271t-271 -112q-158 0 -270 112q-113 113 -113 271zM258 367q0 -78 55 -133.5t133 -55.5 t133.5 55.5t55.5 133.5t-55.5 133t-133.5 55t-133 -55t-55 -133z" />
<glyph unicode="7" horiz-adv-x="923" d="M61 2l492 1024l-178 2h-21q-97 0 -174.5 52.5t-111.5 138.5l-2 4h796l-583 -1221h-218z" />
<glyph unicode="8" horiz-adv-x="903" d="M61 379q0 161 115 276q11 11 31 27q-84 90 -84 221q0 136 96.5 232t233.5 96q136 0 231.5 -95.5t95.5 -232.5q0 -131 -84 -221q20 -16 31 -27q115 -115 115 -276q0 -160 -115 -275q-114 -114 -274 -114q-163 0 -277 114q-115 115 -115 275zM258 379q0 -79 58 -137 t137 -58t135.5 57.5t56.5 137.5t-56.5 137t-135.5 57q-80 0 -137.5 -57.5t-57.5 -136.5zM317 903q0 -55 40 -94t96 -39q55 0 94 39t39 94t-39 94t-94 39q-56 0 -96 -39t-40 -94z" />
<glyph unicode="9" horiz-adv-x="890" d="M63 852q0 161 111 272t272 111q160 0 271 -111q112 -112 112 -272q0 -128 -75 -229l-113 -174h2l-190 -299l-11 -15q-52 -82 -138.5 -120t-176.5 -21l-4 2l211 330l90 143q-143 6 -250 113q-111 111 -111 270zM258 852q0 -78 55 -133t133 -55t133.5 55t55.5 133 t-55.5 133t-133.5 55t-133 -55t-55 -133z" />
<glyph unicode=":" d="M61 344q0 125 125 125q123 0 123 -125q0 -123 -123 -123q-125 0 -125 123zM61 733q0 125 125 125q123 0 123 -125q0 -123 -123 -123q-125 0 -125 123z" />
<glyph unicode=";" d="M61 516q0 125 125 125q123 0 123 -125q0 -123 -123 -123q-125 0 -125 123zM88 -61v294h195v-14q0 -94 -52.5 -170t-138.5 -110h-4z" />
<glyph unicode="&#x3c;" horiz-adv-x="702" d="M63 475v250l578 356v-229l-410 -252l410 -254v-227z" />
<glyph unicode="=" horiz-adv-x="882" d="M63 344v195h758v-195h-758zM63 688v195h758v-195h-758z" />
<glyph unicode="&#x3e;" horiz-adv-x="702" d="M63 125v227l410 254l-410 254v227l578 -356v-250z" />
<glyph unicode="?" horiz-adv-x="958" d="M61 819v8q0 172 123 295q121 121 295 121t295 -121q123 -123 123 -295q0 -174 -123 -297q-63 -63 -145 -94q-28 -12 -46 -38t-18 -58h-2v-37h-194v39q1 93 53.5 167.5t136.5 108.5q64 25 103.5 82t39.5 127q0 92 -65.5 157t-157.5 65t-157.5 -65t-65.5 -157v-8h-195z M356 106q0 51 36 88t87 37t88 -37t37 -88t-37 -86.5t-88 -35.5t-87 35.5t-36 86.5z" />
<glyph unicode="@" horiz-adv-x="1314" d="M63 610q0 120 48 238q48 115 127 194q90 90 188 132q105 47 231 47q127 0 232 -47q98 -42 188 -132q82 -82 129 -194q45 -110 45 -238v-32q0 -102 -70 -174t-169 -72t-168 69q-84 -77 -199 -77q-121 0 -207 83.5t-86 202.5q0 118 85.5 201.5t207.5 83.5q124 0 211 -90 q37 32 78 49h2v-66l2 -210q0 -32 21.5 -54t52.5 -22q24 0 42.5 14.5t26.5 36.5q4 36 4 57q0 182 -125.5 310.5t-302.5 128.5t-301.5 -128.5t-124.5 -310.5q0 -119 57 -220.5t155 -160.5t214 -59q130 0 244 80l127 -119q-64 -52 -139 -86q-105 -47 -232 -47q-126 0 -231 47 q-100 43 -188 131q-78 78 -127 195q-48 118 -48 239zM522 610q0 -47 36 -80.5t87 -33.5t86 33.5t35 80.5q0 48 -35 81.5t-86 33.5t-87 -34t-36 -81z" />
<glyph unicode="A" horiz-adv-x="1056" d="M10 -27l525 1282l512 -1255h-213l-101 254h-399l-39 -92q-35 -88 -112 -138.5t-169 -50.5h-4zM410 449h247l-122 317z" />
<glyph unicode="B" horiz-adv-x="829" d="M74 0v1221h323h2q135 0 231.5 -95.5t96.5 -230.5q0 -119 -74 -209q14 -10 39 -35q111 -111 111 -270q0 -157 -111 -268q-113 -113 -272 -113h-10h-336zM268 195h154q78 0 132 54t54 132q0 65 -40.5 116t-102.5 66q-21 5 -42.5 5.5t-32.5 -1.5l-11 -2q-69 -15 -111 -73 v-297zM268 733q73 31 150 31q43 0 78.5 40t35.5 91q0 55 -39 94t-94 39h-2h-2h-127v-295z" />
<glyph unicode="C" horiz-adv-x="888" d="M23 614q0 135 49 248q46 110 133 197q84 84 196 131q113 49 240 49q91 0 186 -29v-209q-88 43 -186 43q-174 0 -299 -127.5t-125 -302.5t125 -302.5t299 -127.5q98 0 186 43v-209q-92 -28 -186 -28q-127 0 -240 49q-112 47 -196 131q-87 87 -133 197q-49 113 -49 247z " />
<glyph unicode="D" horiz-adv-x="962" d="M68 2l2 1190l6 2q108 47 241 47q143 0 242 -43q114 -48 197 -131q87 -87 133 -197q47 -108 47 -245q0 -138 -47 -246q-46 -110 -133 -197t-197 -133q-98 -44 -227 -47h-264zM268 197h39h10q174 0 299 126.5t125 301.5t-125 302.5t-299 127.5q-17 0 -49 -4v-854z" />
<glyph unicode="E" horiz-adv-x="727" d="M82 2v1221h573v-195h-379v-256h291v-194h-291v-381h144q94 0 170 -52.5t110 -138.5v-4h-618z" />
<glyph unicode="F" horiz-adv-x="679" d="M82 281v940h555v-193h-358v-254h260v-194h-260v-605h-5q-86 34 -138 112t-52 175v19h-2z" />
<glyph unicode="G" horiz-adv-x="1081" d="M27 610q0 127 49 240q46 110 133 197t197 133q113 49 247 49q96 0 191 -29v-209q-88 43 -191 43q-115 0 -214.5 -57t-158.5 -155t-59 -212q0 -175 123.5 -299.5t298.5 -124.5h6l4 -2h6q78 0 132.5 55.5t54.5 133.5q0 67 -42.5 118.5t-107.5 65.5h-2v2q-76 17 -134.5 66.5 t-86.5 119.5v5h219q131 0 236 -105q112 -112 112 -272q0 -159 -112 -271t-271 -112q-4 0 -12 1t-12 1q-125 3 -227 47q-110 46 -197 133t-133 197q-49 113 -49 241z" />
<glyph unicode="H" horiz-adv-x="960" d="M68 264q0 3 1 9.5t1 9.5h-2v942l196 -2v-449h434v449h195v-1221h-195v578h-436v-603h-2q-86 34 -139 112t-53 175z" />
<glyph unicode="I" horiz-adv-x="378" d="M92 2v971q0 94 52.5 171t138.5 111h4v-1253h-195z" />
<glyph unicode="J" horiz-adv-x="569" d="M33 -8v203q43 -15 69 -15q75 0 130.5 52.5t58.5 127.5v609q0 97 52 174.5t138 111.5l4 2v-884v-4q0 -159 -112 -271t-271 -112q-34 0 -69 6z" />
<glyph unicode="K" horiz-adv-x="913" d="M74 266v19v940l194 -2v-359l289 359h248l-438 -549l542 -674h-250l-391 485v-508l-4 3q-86 34 -138 111.5t-52 174.5z" />
<glyph unicode="L" horiz-adv-x="681" d="M74 0v969q0 97 52 174.5t138 111.5l4 2v-1062h385v-195h-579z" />
<glyph unicode="M" horiz-adv-x="1306" d="M10 -29l334 1270l315 -758l314 758l323 -1241h-200l-166 631l-271 -660l-272 660l-115 -436q-24 -91 -95.5 -151t-162.5 -71z" />
<glyph unicode="N" horiz-adv-x="1038" d="M72 2v1247l698 -776l2 498q0 97 53.5 176t139.5 113v-1297l-699 776v-737h-194z" />
<glyph unicode="O" horiz-adv-x="1312" d="M37 616q0 129 49 242q49 117 131 199q90 90 197 135q113 49 241 49q129 0 242 -49q107 -45 197 -135q82 -82 131 -199q49 -113 49 -242q0 -130 -49 -243q-49 -117 -131 -199q-90 -90 -197 -135q-113 -49 -242 -49q-128 0 -241 49q-107 45 -197 135q-82 82 -131 199 q-49 113 -49 243zM231 616q0 -175 125 -302.5t299 -127.5t299 127.5t125 302.5t-125 301.5t-299 126.5t-299 -126.5t-125 -301.5z" />
<glyph unicode="P" horiz-adv-x="817" d="M63 262v19v944l328 -2q162 0 273 -111q110 -110 110 -272q0 -161 -110 -271q-112 -112 -273 -112q-69 0 -133 24v-508l-4 2q-86 34 -138.5 112t-52.5 175zM258 707q56 -56 133 -56q78 0 133.5 55.5t55.5 133.5t-54.5 133t-132.5 55h-135v-321z" />
<glyph unicode="Q" horiz-adv-x="1314" d="M39 614q0 131 49 244q49 117 131 199q87 87 197 133q113 49 241 49q129 0 242 -49q110 -46 197 -133q82 -82 131 -199q49 -113 49 -244q0 -130 -49 -243q-49 -117 -131 -199q-1 -1 -3 -2t-3 -2q61 -24 107 -68.5t69 -103.5v-4h-596h-13q-128 0 -241 49q-114 48 -197 131 q-82 82 -131 199q-49 113 -49 243zM233 614q0 -175 125 -301.5t299 -126.5t299 126.5t125 301.5t-125 301.5t-299 126.5t-299 -126.5t-125 -301.5z" />
<glyph unicode="R" horiz-adv-x="858" d="M72 262v19v942l336 -2q159 0 270 -111q113 -113 113 -272q0 -158 -113 -271q-87 -87 -213 -106l371 -463h-250l-320 397l2 -422l-4 2q-86 34 -139 112t-53 175zM268 707q58 -58 140 -58q78 0 133 55.5t55 133.5t-55 133t-133 55h-140v-319z" />
<glyph unicode="S" horiz-adv-x="786" d="M53 197h291h6q77 0 132 55t55 131q0 65 -45 116.5t-109 65.5q-9 2 -21 4q-4 1 -9.5 1.5t-8.5 1t-6 1.5q-118 20 -198.5 112t-80.5 212q0 134 99 231t235 97h303v-2q-34 -85 -113.5 -139t-174.5 -54h-15q-56 0 -97.5 -39t-41.5 -94q0 -46 31.5 -83t76.5 -48q11 -2 31 -4 q62 -8 123 -36.5t105 -72.5q110 -110 110 -270t-110 -270q-113 -113 -271 -113q-1 0 -3 1t-3 1h-8q-94 0 -170.5 52.5t-110.5 138.5z" />
<glyph unicode="T" horiz-adv-x="843" d="M49 1028v195h748v-195h-277v-1055l-2 2q-86 34 -138 112t-52 175l-2 21v745h-277z" />
<glyph unicode="U" horiz-adv-x="1062" d="M70 446v779h194v-768v-6q0 -110 79 -189.5t189 -79.5q108 0 186 76t81 184v496q0 98 52.5 176.5t137.5 112.5l4 2v-776q0 -193 -135 -328q-137 -137 -326 -137q-190 0 -327 137q-132 132 -135 321z" />
<glyph unicode="V" horiz-adv-x="931" d="M6 1221h207l238 -674l191 509q32 89 107 142.5t167 56.5h5l-54 -148l-416 -1142z" />
<glyph unicode="W" horiz-adv-x="1394" d="M6 1223h207l233 -645l244 690l244 -688l176 475q32 89 107 143t167 57h5l-48 -129l-415 -1136l-236 688l-239 -692z" />
<glyph unicode="X" horiz-adv-x="1075" d="M12 0l404 651l-365 570h230l249 -385l250 385h230l-367 -572l422 -672h-4q-25 -4 -50 -4q-63 -1 -125 27q-86 38 -138 121l-220 346l-286 -467h-230z" />
<glyph unicode="Y" horiz-adv-x="903" d="M23 1020v203q50 -10 112 -37q124 -53 217 -146q61 -61 103 -129q47 76 100 129q93 93 217 146q71 28 111 37v-203q-138 -46 -231 -163t-103 -265v-619h-4q-86 34 -138.5 113t-52.5 176v19v327q-13 143 -104.5 255t-226.5 157z" />
<glyph unicode="Z" horiz-adv-x="929" d="M20 0l537 1026h-197h-6q-94 0 -170 52.5t-110 138.5v4h805l-537 -1026h535v-195h-857z" />
<glyph unicode="[" horiz-adv-x="446" d="M63 0v1221v110v84h322v-194h-127v-1221h127v-195h-322v35v160z" />
<glyph unicode="\" horiz-adv-x="1110" d="M61 1374h230l756 -1524h-228z" />
<glyph unicode="]" horiz-adv-x="446" d="M63 -2h127v1223h-127v196h322v-84v-112v-1223v-160v-35h-322v195z" />
<glyph unicode="^" horiz-adv-x="1089" d="M63 803l357 577h250l356 -577h-227l-254 409l-254 -409h-228z" />
<glyph unicode="_" horiz-adv-x="1019" d="M61 0h897v-195h-897v195z" />
<glyph unicode="a" horiz-adv-x="1056" d="M10 -29l525 1280l512 -1249h-211l-101 256h-399l-27 -68q-36 -90 -121.5 -154.5t-175.5 -64.5h-2zM412 453h247l-122 309z" />
<glyph unicode="b" horiz-adv-x="829" d="M74 2v1221h323h2q135 0 231.5 -96.5t96.5 -231.5q0 -119 -74 -209q14 -10 39 -35q111 -111 111 -266q0 -159 -111 -270q-113 -113 -272 -113h-10h-336zM268 197h154q78 0 132 55t54 133q0 65 -40.5 116t-102.5 66q-21 5 -42.5 5.5t-32.5 -1.5l-11 -2q-69 -15 -111 -73 v-299zM268 733q73 31 150 31q43 0 78.5 40t35.5 91q0 55 -39 94t-94 39h-2h-2h-127v-295z" />
<glyph unicode="c" horiz-adv-x="888" d="M23 614q0 133 49 246q46 110 133 197q88 88 196 133q113 49 240 49q91 0 186 -29v-209q-88 43 -186 43q-174 0 -299 -127.5t-125 -302.5t125 -302.5t299 -127.5q98 0 186 43v-209q-92 -28 -186 -28q-132 0 -240 47q-108 45 -196 133q-87 87 -133 197q-49 113 -49 247z " />
<glyph unicode="d" horiz-adv-x="960" d="M68 2v1190l2 2q104 45 245 45q148 0 242 -41q114 -48 197 -131q87 -87 133 -197q47 -108 47 -245q0 -138 -47 -246q-46 -110 -133 -197t-197 -133q-99 -44 -221 -47h-268zM266 197h39h10q174 0 299 126.5t125 301.5t-125 302.5t-299 127.5q-17 0 -49 -4v-854z" />
<glyph unicode="e" horiz-adv-x="743" d="M102 0v1221h574v-195h-379v-254h291v-194h-291v-383l125 2q96 0 180.5 -54.5t118.5 -138.5v-2z" />
<glyph unicode="f" horiz-adv-x="677" d="M82 264q0 3 1 9.5t1 9.5h-2v938h555v-195h-358l-3 -254h261v-194h-261v-601h-2q-86 34 -139 112t-53 175z" />
<glyph unicode="g" horiz-adv-x="1079" d="M27 612q0 127 49 240q46 110 133 197t197 133q113 49 239 49q91 0 186 -29v-209q-88 43 -186 43q-175 0 -299.5 -124.5t-124.5 -299.5t123 -299.5t297 -124.5h6h6q1 0 3 -1t3 -1q78 0 132.5 55.5t54.5 133.5q0 67 -42.5 118.5t-107.5 65.5h-2l-2 2q-75 17 -133 67 t-86 120v4h219q131 0 236 -105q112 -112 112 -272q0 -159 -112 -271t-271 -112q-4 0 -13 1t-13 1q-123 3 -225 47q-110 46 -197 133t-133 197q-49 113 -49 241z" />
<glyph unicode="h" horiz-adv-x="962" d="M68 283v940l196 -2v-449h434v449h195v-1221h-195v578h-434v-601h-4q-86 34 -138 112t-52 175v19h-2z" />
<glyph unicode="i" horiz-adv-x="378" d="M92 0v977q0 94 52.5 170t138.5 110h4v-1257h-195z" />
<glyph unicode="j" horiz-adv-x="569" d="M31 -6v203q43 -15 71 -15q75 0 130.5 52.5t58.5 127.5v607q0 97 52 174.5t138 111.5l4 2v-882v-4q0 -159 -112 -271t-271 -112q-36 0 -71 6z" />
<glyph unicode="k" horiz-adv-x="911" d="M72 1225l196 -2v-359l287 361h250l-438 -551l542 -674h-250l-391 485v-510l-4 2q-86 34 -138 112t-52 175v19z" />
<glyph unicode="l" horiz-adv-x="681" d="M74 0v969q0 97 52 174.5t138 111.5l4 2v-1062h387v-195h-581z" />
<glyph unicode="m" horiz-adv-x="1304" d="M10 -29l332 1270l315 -758l314 758l323 -1241h-200l-166 631l-271 -660l-272 660l-113 -436q-24 -91 -95.5 -151t-162.5 -71z" />
<glyph unicode="n" horiz-adv-x="1038" d="M72 0v1247l698 -776l2 494q0 97 52.5 175.5t138.5 112.5h2v-1292l-699 776v-737h-194z" />
<glyph unicode="o" horiz-adv-x="1312" d="M39 612q0 127 49 240q48 114 131 197q87 87 197 133q113 49 241 49q127 0 240 -49q114 -48 199 -133q83 -83 131 -197q49 -113 49 -240q0 -128 -49 -241q-48 -114 -131 -197q-85 -85 -199 -133q-113 -49 -240 -49q-128 0 -241 49q-110 46 -197 133q-83 83 -131 197 q-49 113 -49 241zM233 612q0 -115 57 -213t155 -155.5t212 -57.5t212 57.5t155 155.5t57 213q0 175 -124.5 299.5t-299.5 124.5t-299.5 -124.5t-124.5 -299.5z" />
<glyph unicode="p" horiz-adv-x="817" d="M63 264v19v940l328 -2q160 0 271 -111q112 -112 112 -272q0 -159 -112 -271t-271 -112q-69 0 -133 24v-504l-4 2q-86 34 -138.5 112t-52.5 175zM258 705q56 -56 133 -56q78 0 133.5 55.5t55.5 133.5t-55.5 133t-133.5 55h-133v-321z" />
<glyph unicode="q" horiz-adv-x="1312" d="M39 618q0 129 49 242q48 114 131 197t197 131q113 49 241 49q127 0 240 -49q117 -49 199 -131q83 -83 131 -197q49 -113 49 -242q0 -128 -49 -241q-48 -114 -131 -197q-1 -1 -3 -2t-3 -2q61 -24 107 -68.5t69 -103.5v-4h-596h-13q-128 0 -241 49q-114 48 -197 131 t-131 197q-49 113 -49 241zM233 618q0 -175 124.5 -299t299.5 -124t299.5 124t124.5 299t-124.5 299.5t-299.5 124.5t-299.5 -124.5t-124.5 -299.5z" />
<glyph unicode="r" horiz-adv-x="858" d="M72 283l2 940l329 -2q160 0 271 -111q112 -112 112 -272q0 -157 -112 -269q-87 -87 -209 -106l373 -463h-252l-320 397l2 -422l-4 2q-86 34 -138 112t-52 175zM268 707q58 -58 135 -58q78 0 133.5 55.5t55.5 133.5t-55.5 133t-133.5 55h-135v-319z" />
<glyph unicode="s" horiz-adv-x="786" d="M53 193h291h6q76 0 131.5 55.5t55.5 132.5q0 64 -47.5 116t-112.5 66q-9 0 -21 2q-5 1 -10.5 1.5t-9 1t-6.5 1.5q-118 20 -195.5 111.5t-77.5 212.5q0 135 96.5 232.5t231.5 97.5h311l-2 -4q-34 -84 -116.5 -137.5t-178.5 -53.5h-14q-55 0 -94 -39.5t-39 -95.5 q0 -47 28.5 -82.5t73.5 -46.5q11 -2 31 -4q64 -8 128.5 -37t107.5 -72q110 -110 110 -270t-110 -270q-113 -113 -271 -113h-6h-8q-94 0 -170.5 53t-110.5 139z" />
<glyph unicode="t" horiz-adv-x="843" d="M49 1026v195h748v-195h-277v-1051h-2q-85 34 -137.5 112.5t-52.5 176.5l-2 19v743h-277z" />
<glyph unicode="u" horiz-adv-x="1062" d="M70 442v781h194v-770v-7q0 -110 79 -188t189 -78q109 0 186.5 75.5t80.5 182.5v498q0 97 52 175t138 112l4 2v-776q0 -193 -135 -328t-326 -135q-192 0 -327 135q-132 132 -135 321z" />
<glyph unicode="v" horiz-adv-x="921" d="M6 1223h207l238 -674l186 508q32 89 107 143t167 57h4l-53 -147l-411 -1145z" />
<glyph unicode="w" horiz-adv-x="1378" d="M6 1223h207l233 -641l244 686l244 -684l178 475q32 90 107 144t167 57h5l-48 -130l-417 -1140l-236 692l-239 -696z" />
<glyph unicode="x" horiz-adv-x="1071" d="M10 0l404 653l-359 570h230l243 -385l244 385h229l-360 -572l420 -676h-4q-26 -4 -51 -4q-64 -1 -126 27q-86 38 -137 121l-215 348l-288 -467h-230z" />
<glyph unicode="y" horiz-adv-x="903" d="M20 1020v203q56 -11 115 -37q124 -53 217 -146q56 -56 101 -129q43 71 102 129q95 95 215 146q71 28 111 37v-203q-138 -46 -230 -163t-102 -265v-619h-4q-86 34 -138.5 113t-52.5 176l-2 19v327q-13 143 -105 255t-227 157z" />
<glyph unicode="z" horiz-adv-x="929" d="M20 -2l537 1030h-199h-6q-94 0 -170 52.5t-110 138.5v4h807l-537 -1030h535v-195h-857z" />
<glyph unicode="{" d="M63 406v192v195q17 0 28 10.5t13 27.5v289q1 97 71 165.5t167 68.5v-195q-17 0 -28 -11.5t-13 -29.5v-287v-4q-3 -91 -64.5 -155t-150.5 -72q89 -8 151.5 -74t63.5 -157v-285q0 -17 12 -29t29 -12v-195q-98 0 -168 70t-70 168v281q-2 17 -13 28t-28 11z" />
<glyph unicode="|" horiz-adv-x="319" d="M63 -111v1448h195v-1448h-195z" />
<glyph unicode="}" d="M61 43q17 0 30 12t13 29v285q2 91 63 157.5t150 73.5q-89 7 -149.5 71.5t-63.5 155.5v4v289q-1 17 -13.5 28t-29.5 11v195q97 0 167 -68.5t71 -165.5v-289q2 -17 13 -27.5t28 -10.5v-195v-192q-17 0 -28 -11t-13 -28v-281q0 -98 -70 -168t-168 -70v195z" />
<glyph unicode="&#xa3;" horiz-adv-x="964" d="M61 162q88 30 143.5 105t55.5 169v10h-166v199h80q-70 104 -70 217q0 157 111 268t266 111q158 0 269 -111q110 -110 110 -268q0 -5 -1 -15.5t-1 -15.5h-201q5 25 5 31q0 73 -53.5 126.5t-127.5 53.5q-73 0 -125.5 -53t-52.5 -127q0 -61 41 -112q42 -51 68 -105h163v-199 h-116v-10q0 -102 -37 -186q51 -2 147 -33q49 -16 76 -21.5t69.5 1.5t92.5 34l94 -172q-116 -64 -227 -61q-59 2 -164 33q-86 26 -125 22q-66 -7 -186 -49q-44 -22 -64 -29z" />
<glyph unicode="&#xaa;" horiz-adv-x="1265" />
<glyph unicode="&#xad;" horiz-adv-x="704" d="M61 516v4q34 86 110.5 138.5t170.5 52.5h6v2h295v-4q-34 -86 -110.5 -139.5t-170.5 -53.5q-1 0 -3 1t-3 1v-2h-295z" />
<glyph unicode="&#xb6;" horiz-adv-x="1376" />
<glyph unicode="&#x2000;" horiz-adv-x="708" />
<glyph unicode="&#x2001;" horiz-adv-x="1417" />
<glyph unicode="&#x2002;" horiz-adv-x="708" />
<glyph unicode="&#x2003;" horiz-adv-x="1417" />
<glyph unicode="&#x2004;" horiz-adv-x="472" />
<glyph unicode="&#x2005;" horiz-adv-x="354" />
<glyph unicode="&#x2006;" horiz-adv-x="236" />
<glyph unicode="&#x2007;" horiz-adv-x="236" />
<glyph unicode="&#x2008;" horiz-adv-x="177" />
<glyph unicode="&#x2009;" horiz-adv-x="283" />
<glyph unicode="&#x200a;" horiz-adv-x="78" />
<glyph unicode="&#x2010;" horiz-adv-x="704" d="M61 516v4q34 86 110.5 138.5t170.5 52.5h6v2h295v-4q-34 -86 -110.5 -139.5t-170.5 -53.5q-1 0 -3 1t-3 1v-2h-295z" />
<glyph unicode="&#x2011;" horiz-adv-x="704" d="M61 516v4q34 86 110.5 138.5t170.5 52.5h6v2h295v-4q-34 -86 -110.5 -139.5t-170.5 -53.5q-1 0 -3 1t-3 1v-2h-295z" />
<glyph unicode="&#x2012;" horiz-adv-x="704" d="M61 516v4q34 86 110.5 138.5t170.5 52.5h6v2h295v-4q-34 -86 -110.5 -139.5t-170.5 -53.5q-1 0 -3 1t-3 1v-2h-295z" />
<glyph unicode="&#x2013;" horiz-adv-x="1146" d="M61 516v4q60 86 194.5 138.5t299.5 52.5h11v2h519v-4q-60 -86 -194.5 -139.5t-299.5 -53.5q-2 0 -5.5 1t-5.5 1v-2h-519z" />
<glyph unicode="&#x2014;" horiz-adv-x="2170" d="M61 516v4q120 86 389 138.5t600 52.5h21v2h1038v-4q-120 -86 -389 -139.5t-600 -53.5q-3 0 -10 1t-11 1v-2h-1038z" />
<glyph unicode="&#x202f;" horiz-adv-x="283" />
<glyph unicode="&#x205f;" horiz-adv-x="354" />
<glyph unicode="&#xe000;" horiz-adv-x="1218" d="M0 0v1219h1219v-1219h-1219z" />
</font>
</defs>
</svg>
